<?xml version="1.0" encoding="UTF-8"?>
<svg xmlns="http://www.w3.org/2000/svg" width="1390" height="580" viewBox="0 0 1390 580">
<rect width="100%" height="100%" fill="#ffffff"/>
<defs><marker id="sf" markerWidth="10" markerHeight="8" refX="9" refY="4" orient="auto"><path d="M0,0 L10,4 L0,8 z" fill="#111"/></marker><marker id="mf" markerWidth="11" markerHeight="9" refX="10" refY="4.5" orient="auto"><path d="M0.5,0.5 L10,4.5 L0.5,8.5 z" fill="#fff" stroke="#555" stroke-width="1"/></marker></defs>
<rect x="30.0" y="30.0" width="1330.0" height="520.0" fill="#fff" stroke="#333" stroke-width="2"/>
<rect x="30.0" y="30.0" width="30" height="520.0" fill="#f4f4f4" stroke="#333" stroke-width="2"/>
<g transform="translate(45.0,290.0) rotate(-90)"><text x="0.0" y="3.5" font-family="Arial,Helvetica,sans-serif" font-size="9" font-weight="bold" text-anchor="middle" fill="#111">Cierre y cuadratura de caja diaria — MauleMed</text></g>
<rect x="60.0" y="30.0" width="1300.0" height="260.0" fill="none" stroke="#333" stroke-width="1.4"/>
<rect x="60.0" y="30.0" width="30" height="260.0" fill="#fafafa" stroke="#333" stroke-width="1.4"/>
<g transform="translate(75.0,160.0) rotate(-90)"><text x="0.0" y="3.5" font-family="Arial,Helvetica,sans-serif" font-size="9" font-weight="normal" text-anchor="middle" fill="#111">Cajeras (mesón, todas las sucursales)</text></g>
<rect x="60.0" y="290.0" width="1300.0" height="260.0" fill="none" stroke="#333" stroke-width="1.4"/>
<rect x="60.0" y="290.0" width="30" height="260.0" fill="#fafafa" stroke="#333" stroke-width="1.4"/>
<g transform="translate(75.0,420.0) rotate(-90)"><text x="0.0" y="3.5" font-family="Arial,Helvetica,sans-serif" font-size="9" font-weight="normal" text-anchor="middle" fill="#111">Gabriela Morales — Tesorería</text></g>
<polyline points="350.0,135.0 350.0,200.0" fill="none" stroke="#888" stroke-width="1.2" stroke-dasharray="3,3" marker-end="url(#mf)"/>
<polyline points="188.0,95.0 300.0,95.0" fill="none" stroke="#111" stroke-width="1.6" marker-end="url(#sf)"/>
<polyline points="400.0,95.0 452.5,95.0 452.5,355.0 505.0,355.0" fill="none" stroke="#111" stroke-width="1.6" marker-end="url(#sf)"/>
<polyline points="555.0,355.0 660.0,355.0" fill="none" stroke="#111" stroke-width="1.6" marker-end="url(#sf)"/>
<polyline points="760.0,355.0 865.0,355.0" fill="none" stroke="#111" stroke-width="1.6" marker-end="url(#sf)"/>
<polyline points="915.0,355.0 1020.0,355.0" fill="none" stroke="#111" stroke-width="1.6" marker-end="url(#sf)"/>
<rect x="957.1" y="333.0" width="20.8" height="14" fill="#fff" opacity="0.9"/>
<text x="967.5" y="345.0" font-family="Arial,Helvetica,sans-serif" font-size="10" font-weight="normal" text-anchor="middle" fill="#000">NO</text>
<polyline points="890.0,380.0 890.0,485.0 1020.0,485.0" fill="none" stroke="#111" stroke-width="1.6" marker-end="url(#sf)"/>
<rect x="902.6" y="424.5" width="20.8" height="14" fill="#fff" opacity="0.9"/>
<text x="913.0" y="436.5" font-family="Arial,Helvetica,sans-serif" font-size="10" font-weight="normal" text-anchor="middle" fill="#000">SÍ</text>
<polyline points="1120.0,485.0 1232.0,485.0" fill="none" stroke="#111" stroke-width="1.6" marker-end="url(#sf)"/>
<polyline points="1120.0,355.0 1160.0,355.0 1160.0,225.0 1200.0,225.0" fill="none" stroke="#111" stroke-width="1.6" marker-end="url(#sf)"/>
<polyline points="1250.0,185.0 1250.0,95.0 530.0,95.0 530.0,330.0" fill="none" stroke="#111" stroke-width="1.6" marker-end="url(#sf)"/>
<rect x="300.0" y="55.0" width="100.0" height="80.0" rx="9" ry="9" fill="#fff" stroke="#111" stroke-width="1.8"/>
<circle cx="311.0" cy="64.0" r="2.6" fill="none" stroke="#111" stroke-width="1.1"/><path d="M306.6,71.5 a4.4,4.4 0 0 1 8.8,0" fill="none" stroke="#111" stroke-width="1.1"/>
<text x="350.0" y="87.0" font-family="Arial,Helvetica,sans-serif" font-size="10" font-weight="normal" text-anchor="middle" fill="#111">Cerrar la caja</text><text x="350.0" y="99.0" font-family="Arial,Helvetica,sans-serif" font-size="10" font-weight="normal" text-anchor="middle" fill="#111">del día en el</text><text x="350.0" y="111.0" font-family="Arial,Helvetica,sans-serif" font-size="10" font-weight="normal" text-anchor="middle" fill="#111">RISPACS</text>
<rect x="1200.0" y="185.0" width="100.0" height="80.0" rx="9" ry="9" fill="#fff" stroke="#111" stroke-width="1.8"/>
<circle cx="1211.0" cy="194.0" r="2.6" fill="none" stroke="#111" stroke-width="1.1"/><path d="M1206.6,201.5 a4.4,4.4 0 0 1 8.8,0" fill="none" stroke="#111" stroke-width="1.1"/>
<text x="1250.0" y="211.0" font-family="Arial,Helvetica,sans-serif" font-size="10" font-weight="normal" text-anchor="middle" fill="#111">Corregir los</text><text x="1250.0" y="223.0" font-family="Arial,Helvetica,sans-serif" font-size="10" font-weight="normal" text-anchor="middle" fill="#111">datos de la</text><text x="1250.0" y="235.0" font-family="Arial,Helvetica,sans-serif" font-size="10" font-weight="normal" text-anchor="middle" fill="#111">caja en el</text><text x="1250.0" y="247.0" font-family="Arial,Helvetica,sans-serif" font-size="10" font-weight="normal" text-anchor="middle" fill="#111">RISPACS</text>
<path d="M332.0,200.0 L358.0,200.0 L368.0,210.0 L368.0,250.0 L332.0,250.0 Z" fill="#fff" stroke="#111" stroke-width="1.4"/>
<path d="M358.0,200.0 L358.0,210.0 L368.0,210.0" fill="none" stroke="#111" stroke-width="1.2"/>
<text x="350.0" y="268.0" font-family="Arial,Helvetica,sans-serif" font-size="9" font-weight="normal" text-anchor="middle" fill="#111">Informe de caja ·</text><text x="350.0" y="279.0" font-family="Arial,Helvetica,sans-serif" font-size="9" font-weight="normal" text-anchor="middle" fill="#111">RISPACS</text>
<circle cx="1250.0" cy="485.0" r="18.0" fill="#fff" stroke="#111" stroke-width="3.2"/>
<text x="1250.0" y="523.0" font-family="Arial,Helvetica,sans-serif" font-size="10" font-weight="normal" text-anchor="middle" fill="#111">Información de caja</text><text x="1250.0" y="535.0" font-family="Arial,Helvetica,sans-serif" font-size="10" font-weight="normal" text-anchor="middle" fill="#111">validada</text>
<polygon points="890.0,330.0 915.0,355.0 890.0,380.0 865.0,355.0" fill="#fff" stroke="#111" stroke-width="1.8"/>
<path d="M882.0,347.0 L898.0,363.0 M898.0,347.0 L882.0,363.0" stroke="#111" stroke-width="2.2" fill="none"/>
<text x="890.0" y="319.0" font-family="Arial,Helvetica,sans-serif" font-size="10" font-weight="normal" text-anchor="middle" fill="#111">¿Cuadra la caja?</text>
<rect x="1020.0" y="315.0" width="100.0" height="80.0" rx="9" ry="9" fill="#fff" stroke="#111" stroke-width="1.8"/>
<rect x="1025.5" y="322.0" width="11" height="8" fill="#111" stroke="#111" stroke-width="1.1"/><path d="M1025.5,322.0 L1031.0,327.0 L1036.5,322.0" fill="none" stroke="#fff" stroke-width="1.1"/>
<text x="1070.0" y="341.0" font-family="Arial,Helvetica,sans-serif" font-size="10" font-weight="normal" text-anchor="middle" fill="#111">Informar la</text><text x="1070.0" y="353.0" font-family="Arial,Helvetica,sans-serif" font-size="10" font-weight="normal" text-anchor="middle" fill="#111">diferencia a la</text><text x="1070.0" y="365.0" font-family="Arial,Helvetica,sans-serif" font-size="10" font-weight="normal" text-anchor="middle" fill="#111">caja</text><text x="1070.0" y="377.0" font-family="Arial,Helvetica,sans-serif" font-size="10" font-weight="normal" text-anchor="middle" fill="#111">correspondiente</text>
<polygon points="530.0,330.0 555.0,355.0 530.0,380.0 505.0,355.0" fill="#fff" stroke="#111" stroke-width="1.8"/>
<path d="M522.0,347.0 L538.0,363.0 M538.0,347.0 L522.0,363.0" stroke="#111" stroke-width="2.2" fill="none"/>
<text x="530.0" y="400.0" font-family="Arial,Helvetica,sans-serif" font-size="10" font-weight="normal" text-anchor="middle" fill="#111">Reporte de caja por</text><text x="530.0" y="412.0" font-family="Arial,Helvetica,sans-serif" font-size="10" font-weight="normal" text-anchor="middle" fill="#111">validar</text>
<circle cx="170.0" cy="95.0" r="18.0" fill="#fff" stroke="#111" stroke-width="1.8"/>
<circle cx="170.0" cy="95.0" r="12.0" fill="none" stroke="#111" stroke-width="1.2"/>
<path d="M170.0,95.0 L170.0,89.0 M170.0,95.0 L174.0,97.0" stroke="#111" stroke-width="1.2"/>
<text x="170.0" y="133.0" font-family="Arial,Helvetica,sans-serif" font-size="10" font-weight="normal" text-anchor="middle" fill="#111">Cierre de la jornada en</text><text x="170.0" y="145.0" font-family="Arial,Helvetica,sans-serif" font-size="10" font-weight="normal" text-anchor="middle" fill="#111">el mesón</text>
<rect x="660.0" y="315.0" width="100.0" height="80.0" rx="9" ry="9" fill="#fff" stroke="#111" stroke-width="1.8"/>
<circle cx="671.0" cy="324.0" r="2.6" fill="none" stroke="#111" stroke-width="1.1"/><path d="M666.6,331.5 a4.4,4.4 0 0 1 8.8,0" fill="none" stroke="#111" stroke-width="1.1"/>
<text x="710.0" y="353.0" font-family="Arial,Helvetica,sans-serif" font-size="10" font-weight="normal" text-anchor="middle" fill="#111">Validar el</text><text x="710.0" y="365.0" font-family="Arial,Helvetica,sans-serif" font-size="10" font-weight="normal" text-anchor="middle" fill="#111">reporte de caja</text>
<rect x="1020.0" y="445.0" width="100.0" height="80.0" rx="9" ry="9" fill="#fff" stroke="#111" stroke-width="1.8"/>
<circle cx="1031.0" cy="454.0" r="2.6" fill="none" stroke="#111" stroke-width="1.1"/><path d="M1026.6,461.5 a4.4,4.4 0 0 1 8.8,0" fill="none" stroke="#111" stroke-width="1.1"/>
<text x="1070.0" y="477.0" font-family="Arial,Helvetica,sans-serif" font-size="10" font-weight="normal" text-anchor="middle" fill="#111">Dar el visto</text><text x="1070.0" y="489.0" font-family="Arial,Helvetica,sans-serif" font-size="10" font-weight="normal" text-anchor="middle" fill="#111">bueno al</text><text x="1070.0" y="501.0" font-family="Arial,Helvetica,sans-serif" font-size="10" font-weight="normal" text-anchor="middle" fill="#111">reporte de caja</text>
</svg>